
<svg width="40px" height="40px" viewBox="0 0 40 40" version="1.1" xmlns="http://www.w3.org/2000/svg" xmlns:xlink="http://www.w3.org/1999/xlink">
    <!-- Generator: Sketch 45.2 (43514) - http://www.bohemiancoding.com/sketch -->
    <desc>Created with Sketch.</desc>
    <defs>
        <circle id="path-1" cx="20" cy="20" r="20"></circle>
    </defs>
    <g id="Labstep-Designs-July-2017" stroke="none" stroke-width="1" fill="none" fill-rule="evenodd">
        <g id="1-Desktop-View---Platform" transform="translate(-1335.000000, -25.000000)">
            <g id="Header-Bar">
                <g id="Group-8" transform="translate(1186.000000, 25.000000)">
                    <g id="Profile-Picture" transform="translate(149.000000, 0.000000)">
                        <mask id="mask-2" fill="white">
                            <use xlink:href="#path-1"></use>
                        </mask>
                        <use id="Circle-Mask" fill="#FFCF47" xlink:href="#path-1"></use>
                        <g mask="url(#mask-2)" id="Shape" fill-rule="nonzero">
                            <g transform="translate(8.615385, 8.000000)">
                                <path d="M22.7594827,29.9096507 L22.707825,29.4473673 C22.6874038,29.2645333 22.5216865,29.1326949 22.3377538,29.152994 L22.3087942,29.1561768 L21.8087962,25.1802284 C21.7000019,24.3153568 21.1013135,23.5893964 20.2694538,23.3137663 L17.4911096,22.3931603 C17.1095827,22.2666973 16.6910558,22.3471866 16.3968346,22.5964349 L15.5784231,22.3252607 C15.1135038,22.1712134 14.8,21.7387775 14.8,21.2516683 L14.8,19.426724 L17.2520327,18.4111293 C18.5248327,17.884129 19.3538462,16.6480019 19.3538462,15.2774194 L19.3538462,14.711589 C20.2969904,14.711589 21.0615385,13.9516081 21.0615385,13.014098 C21.0615385,12.6204922 20.9263462,12.2584315 20.7001481,11.9704946 C21.1950231,10.7296287 22.3164788,7.17614337 21.0615385,2.82915173 C21.0615385,2.82915173 20.857825,2.68047981 20.4773654,2.45711828 C20.3742635,1.15210131 19.9230769,0.565830346 19.9230769,0.565830346 L17.8454558,1.25423369 C16.0350885,0.604448268 13.4897731,0 10.246225,0 C10.246225,0 9.87266731,0.389008363 9.10776346,0.565830346 C9.10776346,0.565830346 7.16882115,0.141457587 5.12314808,0 L3.98468654,2.82915173 C3.98468654,2.82915173 1.13853269,2.80559904 1.13853269,6.22413381 C1.13853269,7.47794313 1.84174615,10.6045094 2.14215769,11.8833568 C1.87205769,12.1836005 1.70769231,12.5796817 1.70769231,13.014098 C1.70769231,13.9516081 2.47224038,14.711589 3.41538462,14.711589 L3.41538462,15.2774194 C3.41538462,16.6479312 4.24439808,17.8840583 5.51712692,18.4112707 L7.96923077,19.4268655 L7.96923077,21.2517391 C7.96923077,21.7388483 7.65565577,22.1712841 7.19080769,22.3253314 L6.37239615,22.5965056 C6.078175,22.3472573 5.65964808,22.266768 5.27812115,22.3932311 L2.49977692,23.313837 C1.66791731,23.5894671 1.06922885,24.3154275 0.960434615,25.1802992 L0.460436538,29.1562476 L0.431476923,29.1530648 C0.247473077,29.1327656 0.0818269231,29.2645333 0.0613346154,29.447438 L0.00967692308,29.9097214 C-0.0107442308,30.0925553 0.121815385,30.2572827 0.305748077,30.2775818 L1.13846154,30.3695293 L1.13846154,31.6864994 C1.13846154,32.311459 1.64813654,32.8181601 2.27692308,32.8181601 L20.4923077,32.8181601 C21.1210942,32.8181601 21.6307692,32.311459 21.6307692,31.6864994 L21.6307692,30.3694585 L22.4634115,30.2775111 C22.6473442,30.2572119 22.779975,30.0924846 22.7594827,29.9096507 Z" fill="#FDC88E"></path>
                                <path d="M14.8,19.3796894 L7.96923077,19.3796894 L7.96923077,21.2517391 C7.96923077,21.6590662 7.74253462,22.0178026 7.39879038,22.2178237 C12.1727865,23.0484626 14.8,19.3796894 14.8,19.3796894 Z" fill="#F5B97A"></path>
                                <path d="M19.3538462,11.3166069 L19.3538462,10.1849462 C19.3538462,8.62247646 18.0795519,7.3557945 16.5076923,7.3557945 L6.26153846,7.3557945 C4.68967885,7.3557945 3.41538462,8.62247646 3.41538462,10.1849462 L3.41538462,11.3166069 C2.47224038,11.3166069 1.70769231,12.0765878 1.70769231,13.014098 C1.70769231,13.9516081 2.47224038,14.711589 3.41538462,14.711589 L3.41538462,15.2774194 C3.41538462,16.6479312 4.24439808,17.8840583 5.51712692,18.4112707 L9.19514038,19.9346275 C9.88896154,20.2219986 10.6330885,20.3698925 11.3846154,20.3698925 L11.3846154,20.3698925 C12.1361423,20.3698925 12.8801981,20.2219278 13.5739481,19.9346275 L17.252175,18.4112 C18.5248327,17.884129 19.3538462,16.6480019 19.3538462,15.2774194 L19.3538462,14.711589 C20.2969904,14.711589 21.0615385,13.9516081 21.0615385,13.014098 C21.0615385,12.0765878 20.2969904,11.3166069 19.3538462,11.3166069 Z" fill="#FFD7A3"></path>
                                <path d="M17.6461538,32.8182308 L17.6461538,29.9890791 L22.4134615,29.9890791 L21.808725,25.1802992 C21.6999308,24.3154275 21.1012423,23.5894671 20.2693827,23.313837 L17.4910385,22.3932311 C17.0071923,22.2328889 16.4628654,22.4041233 16.1895635,22.832174 C15.1806019,24.4125381 13.4070923,25.4623656 11.3846865,25.4623656 C9.36228077,25.4623656 7.5887,24.4124674 6.57966731,22.8321032 C6.30636538,22.4040526 5.76203846,22.2328182 5.27819231,22.3931603 L2.49984808,23.3137663 C1.66798846,23.5893964 1.0693,24.3153568 0.960505769,25.1802284 L0.419096154,29.4856315 L5.12314808,29.4939068 L5.12314808,32.8182308 L17.6461538,32.8182308 Z" fill="#F5F5F5"></path>
                                <path d="M7.40007115,13.5799283 L7.40007115,13.5799283 C7.08699423,13.5799283 6.83084038,13.3253047 6.83084038,13.014098 L6.83084038,12.4482676 C6.83084038,12.1370609 7.08699423,11.8824373 7.40007115,11.8824373 L7.40007115,11.8824373 C7.71314808,11.8824373 7.96930192,12.1370609 7.96930192,12.4482676 L7.96930192,13.014098 C7.96930192,13.3253047 7.71307692,13.5799283 7.40007115,13.5799283 Z" fill="#623F33"></path>
                                <path d="M15.3692308,13.5799283 L15.3692308,13.5799283 C15.0561538,13.5799283 14.8,13.3253047 14.8,13.014098 L14.8,12.4482676 C14.8,12.1370609 15.0561538,11.8824373 15.3692308,11.8824373 L15.3692308,11.8824373 C15.6823077,11.8824373 15.9384615,12.1370609 15.9384615,12.4482676 L15.9384615,13.014098 C15.9384615,13.3253047 15.6823077,13.5799283 15.3692308,13.5799283 Z" fill="#623F33"></path>
                                <path d="M11.3846865,17.5562303 C10.3726654,17.5562303 9.42603462,17.3086796 8.78757115,16.8768803 C8.52771731,16.70119 8.46012115,16.3491728 8.63722308,16.0908712 C8.81368462,15.8328526 9.16810192,15.7656602 9.42795577,15.9414213 C9.87544231,16.2439283 10.606975,16.4246404 11.3846865,16.4246404 C12.1623981,16.4246404 12.8939308,16.2439283 13.3414173,15.9414213 C13.6018404,15.7651651 13.9554038,15.8325697 14.13215,16.0908712 C14.3091808,16.3491728 14.2416558,16.70119 13.9818019,16.8768803 C13.3434096,17.3086796 12.3967077,17.5562303 11.3846865,17.5562303 Z" fill="#E4B07B"></path>
                                <path d="M6.40363269,17.2382337 C5.94241346,16.7466686 5.69245,16.0980148 5.69245,15.4258084 L5.69245,10.4319312 C7.26345577,9.5872172 11.8543019,7.3557945 16.5076923,7.3557945 L6.26153846,7.3557945 C6.06558077,7.3557945 5.87581346,7.37849845 5.69230769,7.41810657 L5.69230769,7.41280191 C4.39325192,7.67499355 3.41538462,8.81627336 3.41538462,10.1849462 L3.41538462,11.3166069 C2.47224038,11.3166069 1.70769231,12.0765878 1.70769231,13.014098 C1.70769231,13.9516081 2.47224038,14.711589 3.41538462,14.711589 L3.41538462,15.2774194 C3.41538462,16.6480019 4.24439808,17.884129 5.51712692,18.4112707 L9.19506923,19.9346275 C9.37508846,20.0091756 9.55880769,20.0733974 9.744875,20.1290609 C8.11943654,18.9470413 7.03754231,17.9137644 6.40363269,17.2382337 Z" fill="#FDC88E"></path>
                                <path d="M5.12314808,30.4162103 L5.12314808,29.1355947 C5.12314808,28.5911952 4.92576731,28.0651145 4.56722308,27.6536143 L1.43510192,24.0596722 C1.18236346,24.3777395 1.01315962,24.7620091 0.960576923,25.1802284 L0.366015385,29.9082361 C1.27130577,29.9622729 3.67943654,30.2427125 5.12314808,30.4162103 Z" fill="#ECECEC"></path>
                                <path d="M5.12314808,29.8515769 L0.431548077,29.1537801 C0.247544231,29.1264435 0.0818980769,29.3038931 0.0614057692,29.5501127 L0.00974807692,30.1726625 C-0.0106730769,30.4188821 0.121886538,30.6407179 0.305819231,30.6680544 L5.12314808,31.3846154 L5.12314808,29.8515769 Z" fill="#D7D7D7"></path>
                                <path d="M17.6461538,30.4162103 L17.6461538,29.1355947 C17.6461538,28.5911952 17.8435346,28.0651145 18.2020788,27.6536143 L21.3342,24.0596722 C21.5869385,24.3777395 21.7561423,24.7620091 21.808725,25.1802284 L22.4032865,29.9082361 C21.4979962,29.9622729 19.0897942,30.2427125 17.6461538,30.4162103 Z" fill="#ECECEC"></path>
                                <path d="M17.6461538,29.8515769 L22.3377538,29.1537801 C22.5217577,29.1264435 22.6874038,29.3038931 22.7078962,29.5501127 L22.7595538,30.1726625 C22.779975,30.4188821 22.6474154,30.6407179 22.4634827,30.6680544 L17.6461538,31.3846154 L17.6461538,29.8515769 Z" fill="#D7D7D7"></path>
                                <path d="M21.0615385,2.82915173 C21.0615385,2.82915173 20.857825,2.68047981 20.4773654,2.45711828 C20.3742635,1.15210131 19.9230769,0.565830346 19.9230769,0.565830346 L17.8454558,1.25423369 C16.0350885,0.604448268 13.4897731,0 10.246225,0 C10.246225,0 9.87266731,0.389008363 9.10776346,0.565830346 C9.10776346,0.565830346 7.16882115,0.141457587 5.12314808,0 L3.98468654,2.82915173 C3.98468654,2.82915173 1.13853269,2.80559904 1.13853269,6.22413381 C1.13853269,7.48034791 1.84445,10.6166748 2.14393654,11.8909247 C2.45672885,11.5412416 2.90770192,11.3166069 3.41545577,11.3166069 L3.41545577,10.1849462 C3.41545577,8.63648076 4.66804808,7.3823178 6.22041154,7.35989677 C5.78338462,8.30228722 5.69237885,9.05328554 5.69237885,9.05328554 C7.11545577,8.11018781 8.96545577,7.3557945 11.3846865,7.3557945 L16.5077635,7.3557945 C18.0796231,7.3557945 19.3539173,8.62247646 19.3539173,10.1849462 L19.3539173,11.3166069 C19.9023712,11.3166069 20.3850077,11.578162 20.6974442,11.9776382 C21.190825,10.7429964 22.3187558,7.18406499 21.0615385,2.82915173 Z" fill="#9D6E48"></path>
                                <path d="M19.9230769,0.565830346 L17.8454558,1.25423369 C16.0350885,0.604448268 13.4897731,0 10.246225,0 C10.246225,0 9.87266731,0.389008363 9.10776346,0.565830346 C9.10776346,0.565830346 7.16882115,0.141457587 5.12314808,0 L3.98468654,2.82915173 C3.98468654,2.82915173 1.13853269,2.80559904 1.13853269,6.22413381 C1.13853269,7.48034791 1.84445,10.6166748 2.14393654,11.8909247 C2.45672885,11.5412416 2.90770192,11.3166069 3.41545577,11.3166069 L3.41545577,10.1849462 C3.41545577,8.7080583 4.55811538,7.50934671 6.01029423,7.38097395 C5.85766923,7.80294194 5.69237885,8.40420741 5.69237885,9.05328554 C7.933725,6.22413381 11.1172904,5.20344659 13.6616096,4.52664277 C16.1875712,3.85471924 16.5077635,2.82915173 16.5077635,2.82915173 C16.5077635,2.82915173 18.9980769,2.68769415 19.9230769,0.565830346 Z" fill="#8D5F3D"></path>
                            </g>
                        </g>
                    </g>
                </g>
            </g>
        </g>
    </g>
</svg>